<?xml version="1.0" standalone="no"?>
<!DOCTYPE svg PUBLIC "-//W3C//DTD SVG 20010904//EN"
 "http://www.w3.org/TR/2001/REC-SVG-20010904/DTD/svg10.dtd">
<svg version="1.0" xmlns="http://www.w3.org/2000/svg"
 width="240.000000pt" height="240.000000pt" viewBox="0 0 240.000000 240.000000"
 preserveAspectRatio="xMidYMid meet">

<defs>
<linearGradient id="bgGradient" x1="0%" y1="0%" x2="100%" y2="100%">
<stop offset="0%" style="stop-color:#ffc3a0;stop-opacity:1" />
<stop offset="100%" style="stop-color:#ffafbd;stop-opacity:1" />
</linearGradient>
</defs>

<rect width="240" height="240" fill="url(#bgGradient)" rx="40" ry="40"/>

<g transform="translate(0.000000,240.000000) scale(0.100000,-0.100000)"
fill="#FFFFFF" stroke="none">
<path d="M942 2374 c-212 -97 -357 -285 -436 -563 -36 -126 -51 -160 -100
-231 -17 -25 -45 -81 -63 -125 -27 -66 -33 -94 -33 -155 0 -41 6 -98 14 -127
12 -47 12 -54 -6 -85 -10 -18 -45 -57 -76 -87 -32 -29 -43 -44 -25 -32 17 12
50 42 72 68 43 48 48 47 29 -8 -14 -41 -31 -64 -112 -149 -86 -91 -116 -148
-116 -221 0 -32 5 -70 10 -84 9 -24 6 -32 -21 -62 -67 -77 -74 -111 -69 -338
0 -16 -2 -63 -6 -102 l-6 -73 29 0 c29 0 30 2 47 83 25 118 75 283 104 346 14
30 41 69 59 87 29 29 36 32 57 23 13 -6 30 -22 37 -35 7 -13 16 -24 21 -24 13
0 10 8 -22 44 -29 33 -30 35 -12 45 16 8 20 4 31 -37 8 -26 15 -54 16 -62 1
-8 14 -45 28 -81 25 -63 49 -149 61 -216 5 -28 0 -38 -31 -70 -29 -28 -33 -35
-16 -31 20 5 20 4 7 -28 -8 -18 -14 -36 -14 -39 0 -2 131 -4 292 -4 286 1 291
1 310 22 54 64 79 160 59 235 -7 23 -16 42 -20 42 -5 0 -12 8 -15 17 -5 13 0
11 18 -6 15 -14 27 -36 27 -50 1 -17 3 -20 6 -9 4 15 8 13 29 -11 23 -28 24
-31 10 -63 -12 -28 -41 -118 -54 -165 -3 -10 47 -13 225 -13 211 0 229 1 230
18 1 9 6 29 12 44 8 21 16 27 41 26 23 -1 30 -5 28 -17 -2 -9 -11 -15 -20 -13
-10 1 -20 -9 -26 -28 -10 -28 -9 -30 12 -30 18 0 25 10 40 55 10 33 23 55 32
55 16 0 18 -13 5 -38 -4 -9 -11 -30 -15 -47 l-7 -30 28 34 c25 30 32 32 50 22
19 -9 23 -8 28 10 4 11 12 18 18 16 13 -5 14 -20 3 -55 l-7 -22 180 0 181 0 0
29 c0 39 20 51 21 14 l1 -28 14 33 c16 37 34 42 35 10 1 -20 3 -18 15 10 8 17
19 32 24 32 13 0 13 -17 0 -25 -5 -3 -10 -11 -10 -17 0 -7 9 -2 20 10 25 26
47 28 53 5 3 -11 5 -7 6 10 1 25 13 32 42 29 4 -1 10 10 13 23 4 14 11 25 16
25 6 0 8 -11 4 -26 l-7 -26 27 27 c26 26 27 31 25 126 -1 54 -3 99 -4 99 -21
0 -245 -108 -261 -125 -18 -19 -27 -22 -55 -16 -22 5 -43 3 -61 -6 -24 -12
-33 -11 -70 6 -24 10 -77 29 -118 41 -41 13 -109 33 -150 46 -41 12 -148 44
-237 70 -90 26 -163 50 -163 53 0 7 35 29 88 57 15 8 22 14 16 14 -13 0 -46
-17 -89 -45 -16 -11 -43 -20 -60 -20 -29 0 -31 -3 -65 -102 -19 -57 -37 -103
-40 -103 -3 0 -23 25 -45 55 -22 30 -43 54 -47 55 -26 1 -93 177 -83 218 6 23
8 25 16 9 6 -9 7 -22 4 -27 -4 -6 -2 -9 4 -8 5 2 17 -6 26 -17 15 -19 16 -19
4 5 -7 14 -19 36 -28 49 -8 13 -17 33 -18 45 -2 11 -8 25 -13 30 -13 13 -13
73 0 81 6 4 7 -1 3 -11 -4 -12 -3 -15 5 -10 7 4 12 18 12 30 0 13 7 39 15 59
8 19 16 72 17 116 2 45 4 81 5 81 1 0 30 -19 65 -43 87 -60 116 -70 192 -65
59 3 70 8 123 49 l58 45 -3 -72 c-7 -127 26 -200 119 -261 48 -31 88 -96 104
-167 9 -38 17 -52 31 -54 18 -3 18 -2 2 8 -10 6 -18 23 -18 39 0 16 -7 48 -15
71 -8 24 -13 45 -10 48 3 3 5 0 5 -6 0 -7 7 -12 16 -12 15 0 15 2 0 25 l-16
24 38 -13 c20 -7 100 -28 177 -46 164 -38 179 -44 213 -88 24 -31 24 -33 7
-52 -17 -18 -17 -18 -41 8 l-23 27 -1 -56 c0 -39 -6 -64 -18 -79 l-18 -22 -64
41 c-34 23 -68 41 -74 41 -6 0 9 -12 34 -26 25 -14 65 -42 90 -62 25 -19 40
-30 33 -22 -9 10 -8 19 5 39 20 32 56 74 102 119 19 19 29 31 22 27 -9 -5 -27
7 -53 34 -22 22 -45 41 -51 41 -6 0 -8 9 -5 21 5 20 5 20 -15 2 -21 -18 -21
-18 -14 7 4 14 10 35 13 47 3 13 9 23 15 23 5 0 4 8 -1 19 -6 10 -8 21 -5 24
3 3 5 35 5 73 0 58 -5 78 -36 141 -20 40 -35 74 -33 77 2 2 -4 12 -13 22 -37
43 -68 137 -49 149 6 4 8 10 5 15 -3 4 6 32 20 62 14 29 25 70 25 91 0 23 4
36 10 32 18 -11 11 -70 -14 -118 -13 -26 -18 -42 -10 -36 26 21 47 97 41 147
-5 47 -33 121 -50 133 -5 3 -13 26 -18 50 -5 24 -20 73 -33 109 -13 36 -28 83
-34 105 -17 65 -89 259 -116 318 -69 145 -159 248 -263 298 -52 26 -71 30
-121 27 -49 -2 -64 1 -83 17 -12 11 -19 14 -14 6 7 -11 4 -13 -11 -5 -10 5
-68 10 -129 11 -98 2 -116 -1 -163 -23z m392 -314 c36 0 111 -54 154 -112 55
-73 78 -124 87 -186 l7 -54 -30 16 c-40 21 -116 20 -176 0 -42 -14 -67 -37
-54 -49 2 -2 31 2 63 10 75 18 166 19 187 3 25 -21 70 -166 70 -228 0 -83 -30
-227 -60 -289 -32 -65 -120 -163 -205 -227 l-62 -46 -75 4 c-70 3 -79 6 -149
53 -94 62 -185 146 -216 199 -25 43 -62 167 -67 226 -4 45 59 163 82 154 8 -3
28 -8 44 -11 25 -4 28 -3 18 10 -10 11 -9 17 3 27 15 12 18 6 18 -35 0 -6 17
-9 39 -7 21 2 38 7 38 11 0 3 4 13 10 21 7 12 12 11 31 -5 22 -20 22 -20 11 0
-21 42 -52 59 -105 61 -31 1 -61 -4 -75 -13 -23 -14 -23 -14 -16 24 4 21 9 42
12 47 3 5 45 6 93 3 49 -3 91 -2 94 3 12 20 -43 40 -114 43 l-71 2 6 60 c8 73
34 153 65 196 32 46 110 79 186 79 34 0 65 5 69 11 3 6 15 9 25 6 10 -3 22 0
26 6 5 8 8 8 11 -1 2 -7 14 -12 26 -12z m-925 -519 c-18 -28 -34 -49 -37 -46
-3 2 10 30 29 60 19 31 35 52 37 47 1 -5 -12 -33 -29 -61z m1229 34 c-3 -3 -9
2 -12 12 -6 14 -5 15 5 6 7 -7 10 -15 7 -18z m-618 -5 c0 -5 -4 -10 -10 -10
-5 0 -10 5 -10 10 0 6 5 10 10 10 6 0 10 -4 10 -10z m-642 -132 c-16 -39 -24
-82 -28 -158 -5 -114 -20 -106 -20 11 0 66 17 133 46 176 24 38 25 26 2 -29z
m1298 -94 c-10 -26 -23 -14 -18 17 4 26 6 29 14 15 5 -10 7 -24 4 -32z m224
-111 c-9 -14 -10 -10 -6 22 3 22 7 51 8 65 1 14 3 4 5 -22 2 -26 -1 -56 -7
-65z m-1097 57 c6 -24 -6 -26 -27 -4 -20 20 -20 25 1 17 12 -5 14 -3 8 7 -5 8
-4 11 2 7 6 -4 13 -16 16 -27z m1087 -343 c0 -10 4 -16 9 -13 11 7 75 -65 97
-107 8 -15 14 -46 12 -69 l-3 -40 -46 64 c-44 62 -89 160 -89 196 0 15 2 15
10 2 5 -8 10 -23 10 -33z m-1666 -136 c-17 -26 -29 -64 -36 -113 -6 -40 -14
-75 -18 -78 -3 -3 -10 -14 -15 -25 -7 -17 -10 -14 -15 20 l-7 40 -2 -50 c-2
-38 -4 -45 -11 -30 -16 36 -11 114 9 154 19 37 51 71 51 55 0 -5 11 8 25 29
14 20 30 37 36 37 5 0 -2 -18 -17 -39z m1766 -94 c0 -13 -29 12 -42 37 -10 19
-8 18 16 -3 14 -14 26 -29 26 -34z m-20 -32 c25 -41 24 -102 -2 -119 -22 -13
-35 -1 -18 19 12 15 10 67 -5 113 -11 32 0 27 25 -13z m-1020 -108 c0 -5 -4
-5 -10 -2 -5 3 -10 14 -10 23 0 15 2 15 10 2 5 -8 10 -19 10 -23z m-477 -214
c26 -28 29 -37 24 -73 -5 -37 -4 -39 9 -23 13 17 13 17 14 -3 0 -12 -11 -41
-24 -64 l-24 -42 -17 78 c-9 43 -24 96 -32 118 -8 23 -16 54 -18 69 l-4 29 21
-29 c12 -15 35 -42 51 -60z m37 0 c0 -15 -49 52 -50 67 0 8 11 -2 25 -22 14
-20 25 -41 25 -45z m818 35 c35 -11 62 -22 60 -23 -5 -6 -156 39 -165 49 -8 9
4 6 105 -26z m735 -14 c-10 -25 -23 -15 -23 19 1 30 2 31 15 14 7 -11 11 -25
8 -33z m-1998 -49 l-15 -50 5 44 c6 43 13 66 21 59 1 -2 -3 -26 -11 -53z
m1362 29 c-3 -3 -12 -4 -19 -1 -8 3 -5 6 6 6 11 1 17 -2 13 -5z m58 -14 c13
-5 14 -9 5 -9 -8 0 -24 4 -35 9 -13 5 -14 9 -5 9 8 0 24 -4 35 -9z m-1456
-120 c1 -20 -1 -22 -9 -10 -5 8 -9 38 -9 65 l1 50 9 -40 c4 -22 8 -51 8 -65z
m1659 58 c74 -23 131 -43 126 -45 -5 -2 -70 17 -144 41 -74 24 -131 44 -126
45 6 1 70 -18 144 -41z m587 -3 c-49 -24 -94 -44 -100 -43 -5 0 31 19 80 43
50 24 95 44 100 43 6 0 -30 -19 -80 -43z m-1258 -157 c-20 -49 -67 -121 -74
-114 -3 3 5 20 19 38 33 44 58 114 60 168 l2 45 3 -52 c2 -30 -2 -65 -10 -85z
m287 38 l-1 -37 27 32 c33 41 53 32 45 -19 l-6 -37 21 33 c21 30 50 44 50 22
0 -18 -72 -110 -86 -110 -10 0 -14 13 -14 43 l0 42 -21 -32 c-29 -46 -49 -43
-49 6 0 57 11 102 24 98 6 -2 10 -21 10 -41z m821 24 c-3 -5 -12 -10 -18 -10
-7 0 -6 4 3 10 19 12 23 12 15 0z m-114 -18 c-7 -2 -18 1 -23 6 -8 8 -4 9 13
5 13 -4 18 -8 10 -11z m62 1 c-7 -2 -19 -2 -25 0 -7 3 -2 5 12 5 14 0 19 -2
13 -5z m-568 -77 c32 -48 -32 -100 -75 -61 -24 22 -26 48 -4 69 23 24 61 20
79 -8z m-478 -23 c-8 -15 -25 -37 -37 -48 -17 -15 -14 -6 11 31 36 55 50 64
26 17z"/>
<path d="M1400 1617 c-13 -7 -32 -28 -43 -47 -14 -26 -15 -30 -2 -15 15 19 17
19 26 3 12 -21 77 -24 130 -7 57 20 62 29 32 52 -31 25 -107 32 -143 14z m20
-27 c0 -5 -5 -10 -11 -10 -5 0 -7 5 -4 10 3 6 8 10 11 10 2 0 4 -4 4 -10z m79
-26 c-19 -23 -37 -17 -31 11 4 21 7 23 24 14 15 -8 17 -13 7 -25z"/>
<path d="M1274 1285 c-10 -8 -14 -14 -9 -14 6 0 19 6 29 14 11 8 15 15 10 15
-6 0 -19 -7 -30 -15z"/>
<path d="M1175 1283 c11 -3 27 -10 35 -17 13 -10 13 -9 1 7 -7 9 -23 16 -35
16 -20 -1 -20 -2 -1 -6z"/>
<path d="M1420 1211 c-27 -16 -122 -25 -253 -25 -88 0 -122 -3 -110 -10 10 -5
20 -13 23 -17 8 -11 88 -39 109 -38 9 0 -5 7 -31 15 -73 22 -68 34 15 34 41 0
102 3 137 7 69 7 76 -7 16 -33 -17 -7 -24 -13 -15 -14 18 0 98 49 118 73 15
19 13 21 -9 8z"/>
<path d="M1233 1063 c9 -2 23 -2 30 0 6 3 -1 5 -18 5 -16 0 -22 -2 -12 -5z"/>
<path d="M166 755 c-9 -26 -7 -32 5 -12 6 10 9 21 6 23 -2 3 -7 -2 -11 -11z"/>
<path d="M146 705 c-3 -9 -6 -22 -5 -28 0 -7 5 -1 10 12 5 13 8 26 5 28 -2 2
-6 -3 -10 -12z"/>
<path d="M1447 83 c-14 -13 -6 -33 13 -33 13 0 20 7 20 20 0 19 -20 27 -33 13z"/>
<path d="M1891 1605 c0 -5 6 -21 14 -35 8 -14 14 -20 14 -15 0 6 -6 21 -14 35
-8 14 -14 21 -14 15z"/>
<path d="M159 923 c-13 -16 -12 -17 4 -4 16 13 21 21 13 21 -2 0 -10 -8 -17
-17z"/>
<path d="M981 515 c0 -5 11 -30 24 -55 13 -25 24 -40 24 -35 0 6 -11 30 -24
55 -13 25 -24 41 -24 35z"/>
<path d="M1448 473 c7 -3 16 -2 19 1 4 3 -2 6 -13 5 -11 0 -14 -3 -6 -6z"/>
<path d="M1538 453 c7 -3 16 -2 19 1 4 3 -2 6 -13 5 -11 0 -14 -3 -6 -6z"/>
<path d="M1638 433 c7 -3 16 -2 19 1 4 3 -2 6 -13 5 -11 0 -14 -3 -6 -6z"/>
<path d="M1720 420 c0 -6 7 -10 15 -10 8 0 15 2 15 4 0 2 -7 6 -15 10 -8 3
-15 1 -15 -4z"/>
<path d="M1790 395 c46 -18 64 -17 25 0 -16 8 -37 14 -45 14 -8 0 1 -7 20 -14z"/>
<path d="M1041 364 c0 -11 3 -14 6 -6 3 7 2 16 -1 19 -3 4 -6 -2 -5 -13z"/>
<path d="M2085 340 c-16 -16 -26 -32 -24 -34 3 -3 17 10 32 29 34 43 30 45 -8
5z"/>
<path d="M2376 114 c-10 -25 1 -29 14 -5 6 12 7 21 1 21 -5 0 -12 -7 -15 -16z"/>
<path d="M2309 95 c-4 -5 -9 -23 -13 -38 -4 -19 -12 -27 -21 -24 -7 3 -19 -1
-25 -9 -17 -20 -48 -18 -52 4 -3 14 -5 13 -10 -5 -6 -23 -5 -23 103 -23 l109
0 0 40 c0 38 -1 40 -25 34 -17 -4 -25 -2 -26 7 0 8 -5 3 -11 -11 l-11 -25 -6
30 c-4 17 -9 26 -12 20z"/>
<path d="M324 61 c5 -8 56 -3 56 5 0 2 -14 4 -31 4 -16 0 -28 -4 -25 -9z"/>
<path d="M2231 56 c-8 -9 -11 -19 -7 -23 9 -9 29 13 24 27 -2 8 -8 7 -17 -4z"/>
<path d="M1677 24 c-13 -13 -7 -24 14 -24 11 0 19 5 17 12 -5 14 -22 21 -31
12z"/>
</g>
</svg>